<svg xmlns="http://www.w3.org/2000/svg" width="375" viewBox="0 0 375 375" height="375" version="1.0"><path fill="#FFF" d="M-37.5 -37.5H412.5V412.5H-37.5z"/><path fill="#FFF" d="M-37.5 -37.5H412.5V412.5H-37.5z"/><path fill="#B2CFCB" d="M-37.5 -37.5H412.5V412.5H-37.5z"/><path fill="#FFF" d="M 126.945312 94.523438 L 111.910156 94.523438 C 108.582031 94.523438 105.839844 97.238281 105.839844 100.53125 L 105.839844 119.4375 C 105.839844 122.730469 108.582031 125.445312 111.910156 125.445312 L 126.945312 125.445312 C 130.273438 125.445312 133.015625 122.730469 133.015625 119.4375 L 133.015625 100.53125 C 133.015625 97.238281 130.273438 94.523438 126.945312 94.523438 M 131.675781 100.980469 L 131.675781 119.4375 C 131.675781 121.996094 129.53125 124.121094 126.945312 124.121094 L 111.910156 124.121094 C 109.324219 124.121094 107.179688 121.996094 107.179688 119.4375 L 107.179688 100.53125 C 107.179688 97.972656 109.324219 95.851562 111.910156 95.851562 L 126.945312 95.851562 C 129.53125 95.851562 131.675781 97.972656 131.675781 100.53125 L 131.675781 100.980469"/><path fill="#FFF" d="M 276.695312 99.316406 L 99.679688 99.316406 C 85.921875 99.316406 74.570312 110.671875 74.570312 124.425781 L 74.570312 234.695312 C 74.570312 248.453125 85.921875 259.804688 99.679688 259.804688 L 276.695312 259.804688 C 290.453125 259.804688 301.804688 248.453125 301.804688 234.695312 L 301.804688 124.425781 C 301.804688 110.671875 290.453125 99.316406 276.695312 99.316406 M 296.257812 126.3125 L 296.257812 234.695312 C 296.257812 245.382812 287.382812 254.257812 276.695312 254.257812 L 99.679688 254.257812 C 88.992188 254.257812 80.117188 245.382812 80.117188 234.695312 L 80.117188 124.425781 C 80.117188 113.738281 88.992188 104.863281 99.679688 104.863281 L 276.695312 104.863281 C 287.382812 104.863281 296.257812 113.738281 296.257812 124.425781 L 296.257812 126.3125"/><path fill="#FFF" d="M 228.367188 84.003906 L 176.972656 84.003906 L 158.800781 115.878906 L 176.972656 147.753906 L 228.367188 147.753906 L 246.539062 115.878906 L 228.367188 84.003906 M 227.378906 146.023438 L 177.960938 146.023438 L 160.78125 115.878906 L 177.960938 85.730469 L 227.378906 85.730469 L 244.5625 115.878906 L 227.378906 146.023438"/><path fill="#B2CFCB" d="M 274.921875 101.355469 L 100.832031 101.355469 C 87.304688 101.355469 76.140625 112.523438 76.140625 126.050781 L 76.140625 232.640625 C 76.140625 246.167969 87.304688 257.335938 100.832031 257.335938 L 274.921875 257.335938 C 288.449219 257.335938 299.613281 246.167969 299.613281 232.640625 L 299.613281 126.050781 C 299.613281 112.523438 288.449219 101.355469 274.921875 101.355469 M 294.160156 127.90625 L 294.160156 232.640625 C 294.160156 243.148438 285.429688 251.878906 274.921875 251.878906 L 100.832031 251.878906 C 90.324219 251.878906 81.59375 243.148438 81.59375 232.640625 L 81.59375 126.050781 C 81.59375 115.542969 90.324219 106.8125 100.832031 106.8125 L 274.921875 106.8125 C 285.429688 106.8125 294.160156 115.542969 294.160156 126.050781 L 294.160156 127.90625"/><path fill="#B2CFCB" d="M 128.675781 101.722656 L 256.921875 101.722656 L 256.921875 178.222656 L 128.675781 178.222656 L 128.675781 101.722656"/><path fill="#B2CFCB" d="M 58.722656 229.132812 L 201.210938 229.132812 L 201.210938 289.132812 L 58.722656 289.132812 L 58.722656 229.132812"/><path fill="#B2CFCB" d="M 171.996094 186.160156 L 205.746094 186.160156 L 205.746094 252.144531 L 171.996094 252.144531 L 171.996094 186.160156"/><path fill="#B2CFCB" d="M 196.058594 252.628906 L 103.066406 252.628906 C 87.566406 252.628906 74.9375 239.988281 74.9375 224.476562 L 74.9375 128.539062 C 74.9375 113.023438 87.566406 100.382812 103.066406 100.382812 L 196.058594 100.382812 C 211.558594 100.382812 224.1875 113.023438 224.1875 128.539062 L 224.1875 224.476562 C 224.1875 239.988281 211.558594 252.628906 196.058594 252.628906"/><path fill="#B2CFCB" d="M 100.53125 101.722656 L 167.265625 101.722656 L 167.265625 129.472656 L 100.53125 129.472656 L 100.53125 101.722656"/><path fill="#FFF" d="M 201.40625 259.097656 C 183.765625 259.097656 167.15625 252.230469 154.691406 239.738281 C 142.203125 227.277344 135.335938 210.664062 135.335938 193.027344 C 135.335938 175.386719 142.203125 158.777344 154.691406 146.3125 C 167.15625 133.820312 183.765625 126.957031 201.40625 126.957031 C 219.046875 126.957031 235.65625 133.820312 248.121094 146.3125 C 260.609375 158.800781 267.476562 175.386719 267.476562 193.027344 C 267.476562 210.664062 260.609375 227.277344 248.121094 239.738281 C 235.65625 252.230469 219.046875 259.097656 201.40625 259.097656 Z M 201.40625 130.917969 C 184.824219 130.917969 169.214844 137.386719 157.492188 149.109375 C 145.765625 160.835938 139.296875 176.441406 139.296875 193.027344 C 139.296875 209.609375 145.765625 225.214844 157.492188 236.941406 C 169.214844 248.664062 184.824219 255.136719 201.40625 255.136719 C 217.988281 255.136719 233.597656 248.664062 245.320312 236.941406 C 257.046875 225.214844 263.515625 209.609375 263.515625 193.027344 C 263.515625 176.441406 257.046875 160.835938 245.320312 149.109375 C 233.597656 137.386719 217.988281 130.917969 201.40625 130.917969 Z M 201.40625 130.917969"/><path fill="#B2CFCB" d="M -10.792969 188.277344 C -23.664062 188.277344 -35.785156 183.265625 -44.878906 174.152344 C -53.996094 165.054688 -59.007812 152.933594 -59.007812 140.0625 C -59.007812 127.191406 -53.996094 115.070312 -44.878906 105.972656 C -35.785156 96.859375 -23.664062 91.847656 -10.792969 91.847656 C 2.082031 91.847656 14.203125 96.859375 23.296875 105.972656 C 32.414062 115.089844 37.421875 127.191406 37.421875 140.0625 C 37.421875 152.933594 32.414062 165.054688 23.296875 174.152344 C 14.203125 183.265625 2.082031 188.277344 -10.792969 188.277344 Z M -10.792969 94.738281 C -22.894531 94.738281 -34.28125 99.460938 -42.839844 108.015625 C -51.394531 116.570312 -56.117188 127.960938 -56.117188 140.0625 C -56.117188 152.164062 -51.394531 163.554688 -42.839844 172.109375 C -34.28125 180.664062 -22.894531 185.386719 -10.792969 185.386719 C 1.308594 185.386719 12.699219 180.664062 21.253906 172.109375 C 29.8125 163.554688 34.53125 152.164062 34.53125 140.0625 C 34.53125 127.960938 29.8125 116.570312 21.253906 108.015625 C 12.699219 99.460938 1.308594 94.738281 -10.792969 94.738281 Z M -10.792969 94.738281"/><path fill="#B2CFCB" d="M 171.265625 98.929688 L 234.222656 98.929688 L 234.222656 104.179688 L 171.265625 104.179688 L 171.265625 98.929688"/><path fill="#B2CFCB" d="M 107.945312 98.929688 L 130.433594 98.929688 L 130.433594 107.929688 L 107.945312 107.929688 L 107.945312 98.929688"/><path fill="#B2CFCB" d="M 192.953125 151.789062 L 288.203125 151.789062 L 288.203125 252.289062 L 192.953125 252.289062 L 192.953125 151.789062"/><path fill="#B2CFCB" d="M 201.40625 257.0625 C 184.128906 257.0625 167.863281 250.339844 155.652344 238.105469 C 143.421875 225.898438 136.695312 209.628906 136.695312 192.351562 C 136.695312 175.074219 143.421875 158.804688 155.652344 146.597656 C 167.863281 134.363281 184.128906 127.640625 201.40625 127.640625 C 218.683594 127.640625 234.953125 134.363281 247.160156 146.597656 C 259.394531 158.832031 266.121094 175.074219 266.121094 192.351562 C 266.121094 209.628906 259.394531 225.898438 247.160156 238.105469 C 234.953125 250.339844 218.683594 257.0625 201.40625 257.0625 Z M 201.40625 131.519531 C 185.164062 131.519531 169.878906 137.855469 158.394531 149.339844 C 146.910156 160.824219 140.574219 176.109375 140.574219 192.351562 C 140.574219 208.59375 146.910156 223.878906 158.394531 235.363281 C 169.878906 246.847656 185.164062 253.183594 201.40625 253.183594 C 217.648438 253.183594 232.9375 246.847656 244.417969 235.363281 C 255.902344 223.878906 262.238281 208.59375 262.238281 192.351562 C 262.238281 176.109375 255.902344 160.824219 244.417969 149.339844 C 232.9375 137.855469 217.648438 131.519531 201.40625 131.519531 Z M 201.40625 131.519531"/><path fill="#B2CFCB" d="M 202.726562 189.59375 L 288.222656 189.59375 L 288.222656 248.839844 L 202.726562 248.839844 L 202.726562 189.59375"/><path fill="#B2CFCB" d="M 132.65625 183.363281 L 149.152344 183.363281 L 149.152344 189.363281 L 132.65625 189.363281 L 132.65625 183.363281"/><path fill="#B2CFCB" d="M 128.679688 189.59375 L 169.917969 189.59375 L 169.917969 206.84375 L 128.679688 206.84375 L 128.679688 189.59375"/><path fill="#B2CFCB" d="M 136.097656 181.75 L 158.585938 181.75 L 158.585938 190.75 L 136.097656 190.75 L 136.097656 181.75"/><path fill="#B2CFCB" d="M 196.464844 237.972656 L 218.210938 238.398438 L 217.84375 257.136719 L 196.097656 256.710938 L 196.464844 237.972656"/><path fill="#B2CFCB" d="M 212.203125 238.996094 L 237.6875 238.996094 L 237.6875 256.996094 L 212.203125 256.996094 L 212.203125 238.996094"/><path fill="#B2CFCB" d="M 165.203125 107.519531 L 177.816406 85.671875 L 190.433594 107.519531 Z M 165.203125 107.519531"/><path fill="#B2CFCB" d="M 213.367188 110.214844 L 227.539062 85.671875 L 241.707031 110.214844 Z M 213.367188 110.214844"/><path stroke-linecap="round" transform="matrix(0 -.75143 .75 0 74.932 228.761)" fill="none" d="M 0.498211 0.00176289 L 139.250088 0.00176289" stroke="#FFF"/><path fill="#B2CFCB" d="M 226.339844 225.023438 C 227.773438 225.582031 229.09375 226.4375 230.296875 227.59375 C 234.984375 232.171875 235.105469 239.65625 230.53125 244.355469 C 218.441406 256.886719 200.171875 260.886719 183.972656 254.597656 C 167.769531 248.308594 156.984375 233.027344 156.457031 215.601562 C 156.25 209.046875 161.414062 203.539062 167.941406 203.386719 C 174.492188 203.175781 179.984375 208.339844 180.132812 214.871094 C 180.398438 222.691406 185.277344 229.613281 192.570312 232.445312 C 199.863281 235.277344 208.078125 233.4375 213.550781 227.84375 C 216.910156 224.328125 222.035156 223.355469 226.339844 225.023438 Z M 226.339844 225.023438"/><path stroke-linecap="round" transform="matrix(.75 0 0 .75 188.715 259.577)" fill="none" d="M 0.500017 0.00184699 L 159.500027 0.00184699" stroke="#B2CFCB"/><path stroke-linecap="round" transform="matrix(.75319 0 0 .75 196.097 257.168)" fill="none" d="M 0.498814 0.000490716 L 106.060309 0.000490716" stroke="#B2CFCB"/><path fill="#B2CFCB" d="M 60.128906 227.714844 L 82.617188 227.714844 L 82.617188 236.714844 L 60.128906 236.714844 L 60.128906 227.714844"/><path fill="#B2CFCB" d="M 89.109375 138.40625 C 88.472656 139.070312 87.699219 139.601562 86.785156 139.996094 C 83.1875 141.53125 79.039062 139.878906 77.5 136.28125 C 73.371094 126.75 75.355469 115.769531 82.535156 108.289062 C 89.714844 100.808594 100.605469 98.371094 110.324219 102.078125 C 113.980469 103.46875 115.828125 107.574219 114.417969 111.203125 C 113.035156 114.859375 108.929688 116.703125 105.296875 115.285156 C 100.929688 113.636719 95.996094 114.738281 92.765625 118.105469 C 89.53125 121.472656 88.664062 126.421875 90.488281 130.71875 C 91.65625 133.375 91.015625 136.421875 89.109375 138.40625 Z M 89.109375 138.40625"/><path fill="#B2CFCB" d="M 107.628906 97.941406 C 103.3125 102.691406 106.558594 116.226562 106.558594 116.226562 C 106.558594 116.226562 120.339844 118.101562 124.660156 113.429688 C 126.871094 111 126.691406 107.21875 124.265625 105.011719 C 122.398438 103.3125 119.703125 103.046875 117.574219 104.113281 C 118.4375 101.894531 117.917969 99.234375 116.050781 97.539062 C 113.621094 95.328125 109.839844 95.511719 107.628906 97.941406"/><g fill="#FFF"><g><g><path d="M 1.601562 -1.664062 C 1.855469 -1.664062 2.113281 -1.855469 2.144531 -2.078125 C 2.175781 -2.335938 2.046875 -2.464844 1.757812 -2.464844 C 1.535156 -2.464844 1.375 -2.335938 1.3125 -2.078125 C 1.246094 -1.792969 1.34375 -1.664062 1.601562 -1.664062 Z M 1.601562 -1.664062" transform="translate(260.69 209.414)"/></g></g></g><g fill="#FFF"><g><g><path d="M -1.632812 8 C -1.34375 8 -1.183594 7.871094 -1.085938 7.613281 C -0.992188 7.328125 -0.894531 7.039062 -0.832031 6.816406 C 0.289062 2.6875 3.261719 -4.351562 6.527344 -7.199219 C 6.878906 -7.550781 7.261719 -7.808594 7.742188 -8.03125 C 7.773438 -8.0625 7.839844 -8.0625 7.933594 -8.0625 C 8.09375 -8.0625 8.222656 -7.964844 8.285156 -7.742188 C 8.351562 -7.453125 8.351562 -7.167969 8.320312 -6.910156 C 8.285156 -6.621094 8.222656 -6.367188 8.191406 -6.078125 C 8.160156 -5.597656 7.933594 -5.183594 7.453125 -4.894531 C 6.207031 -4.09375 3.710938 -2.078125 3.550781 -0.574219 C 3.457031 0.03125 3.839844 0.449219 4.351562 0.449219 C 4.511719 0.449219 4.671875 0.414062 4.832031 0.320312 C 6.269531 -0.257812 7.933594 -2.558594 8.445312 -4 C 8.671875 -4.542969 9.023438 -4.960938 9.535156 -5.183594 C 9.855469 -5.3125 10.175781 -5.4375 10.496094 -5.597656 C 10.8125 -5.757812 11.132812 -5.886719 11.453125 -6.015625 C 11.742188 -6.109375 12 -6.238281 12.285156 -6.335938 C 12.574219 -6.429688 12.828125 -6.527344 13.117188 -6.621094 C 13.34375 -6.6875 13.40625 -6.816406 13.375 -7.039062 C 13.34375 -7.261719 13.148438 -7.421875 12.925781 -7.390625 C 12.828125 -7.390625 12.734375 -7.359375 12.605469 -7.328125 C 12.445312 -7.292969 12.316406 -7.230469 12.222656 -7.199219 L 9.984375 -6.335938 C 9.886719 -6.304688 9.789062 -6.238281 9.695312 -6.207031 C 9.597656 -6.175781 9.503906 -6.109375 9.40625 -6.078125 C 9.375 -6.046875 9.34375 -6.046875 9.277344 -6.046875 C 9.117188 -6.046875 9.054688 -6.144531 9.085938 -6.335938 C 9.183594 -6.941406 9.277344 -7.488281 9.054688 -8.09375 C 8.894531 -8.671875 8.574219 -8.957031 8.09375 -8.957031 C 7.964844 -8.957031 7.808594 -8.925781 7.613281 -8.863281 C 6.6875 -8.636719 5.632812 -7.710938 4.640625 -6.464844 C 4.160156 -5.855469 3.679688 -5.152344 3.199219 -4.414062 C 2.273438 -2.910156 1.472656 -1.441406 0.863281 -0.160156 C 0.542969 0.511719 0.289062 1.054688 0.0976562 1.503906 C 0 1.726562 -0.0625 1.984375 -0.351562 2.144531 C -0.382812 1.855469 -0.351562 1.601562 -0.289062 1.34375 C -0.222656 1.085938 -0.160156 0.832031 -0.128906 0.609375 C 0.734375 -3.519531 1.855469 -7.519531 3.488281 -11.390625 C 3.519531 -11.484375 3.550781 -11.550781 3.550781 -11.582031 C 3.648438 -11.804688 3.582031 -11.964844 3.421875 -12.03125 C 3.390625 -12.0625 3.328125 -12.0625 3.296875 -12.0625 C 3.136719 -12.0625 3.039062 -12 2.976562 -11.871094 C 2.367188 -10.78125 1.503906 -8.445312 1.085938 -7.230469 C -0.351562 -2.847656 -1.3125 1.566406 -1.824219 6.144531 C -1.886719 6.589844 -1.917969 7.039062 -1.917969 7.488281 C -1.917969 7.773438 -1.824219 7.933594 -1.632812 8 Z M 4.640625 -0.542969 C 4.605469 -0.542969 4.542969 -0.574219 4.511719 -0.609375 C 4.449219 -0.640625 4.449219 -0.734375 4.480469 -0.894531 C 5.214844 -1.953125 5.949219 -2.910156 7.101562 -3.519531 C 7.136719 -3.617188 7.199219 -3.617188 7.230469 -3.582031 C 7.292969 -3.519531 7.261719 -3.457031 7.167969 -3.421875 C 6.6875 -2.175781 5.824219 -1.34375 4.800781 -0.609375 C 4.703125 -0.574219 4.671875 -0.542969 4.640625 -0.542969 Z M 4.640625 -0.542969" transform="translate(264.112 209.414)"/></g></g></g><g fill="#FFF"><g><g><path d="M 1.054688 1.695312 C 1.695312 1.695312 2.71875 0.609375 3.070312 0.0625 C 3.742188 -0.832031 4.449219 -1.757812 5.152344 -2.75 C 5.824219 -3.710938 6.527344 -4.640625 7.199219 -5.503906 C 7.359375 -5.757812 7.550781 -6.046875 7.679688 -6.304688 C 7.773438 -6.398438 7.808594 -6.527344 7.808594 -6.6875 C 7.839844 -6.847656 7.808594 -6.976562 7.648438 -7.039062 C 7.550781 -7.070312 7.488281 -7.101562 7.421875 -7.101562 C 7.199219 -7.101562 6.910156 -6.589844 6.816406 -6.429688 C 5.40625 -4.480469 3.777344 -2.207031 2.273438 -0.289062 C 2.113281 -0.0625 1.503906 0.703125 1.214844 0.703125 C 1.054688 0.703125 0.960938 0.609375 0.929688 0.449219 C 0.703125 -0.191406 0.769531 -0.863281 0.863281 -1.503906 C 1.023438 -3.488281 1.472656 -6.976562 2.589844 -8.671875 C 4.0625 -10.878906 6.816406 -15.484375 7.390625 -18.046875 C 7.421875 -18.300781 7.390625 -18.558594 7.101562 -18.683594 C 6.976562 -18.71875 6.910156 -18.75 6.878906 -18.75 C 6.75 -18.75 6.589844 -18.683594 6.429688 -18.558594 C 4.222656 -16.347656 2.429688 -11.519531 1.472656 -8.605469 C 1.246094 -7.871094 1.054688 -7.230469 0.574219 -6.621094 C 0.449219 -6.496094 0.351562 -6.304688 0.480469 -6.144531 C 0.769531 -5.792969 0.640625 -5.40625 0.542969 -5.054688 C 0.257812 -3.679688 0.03125 -2.335938 0 -0.703125 C 0 -0.609375 0 -0.449219 0 -0.257812 C 0 -0.0625 0 0.128906 0.03125 0.351562 C 0.128906 0.863281 0.449219 1.695312 1.054688 1.695312 Z M 3.648438 -11.484375 C 3.550781 -11.679688 3.582031 -11.902344 3.679688 -12.15625 C 4.289062 -13.726562 5.023438 -15.199219 5.886719 -16.636719 C 6.015625 -16.796875 6.109375 -16.894531 6.207031 -16.894531 C 6.238281 -16.894531 6.304688 -16.863281 6.398438 -16.828125 C 6.367188 -16.863281 6.367188 -16.894531 6.367188 -16.925781 C 6.367188 -16.894531 6.367188 -16.894531 6.398438 -16.863281 L 6.398438 -16.828125 L 5.535156 -15.101562 C 4.894531 -13.886719 4.289062 -12.671875 3.679688 -11.484375 C 3.679688 -11.519531 3.679688 -11.519531 3.679688 -11.519531 C 3.648438 -11.519531 3.648438 -11.519531 3.648438 -11.484375 Z M 3.648438 -11.484375" transform="translate(275.886 209.414)"/></g></g></g><g fill="#FFF"><g><g><path d="M 1.910156 0 L 16.566406 0 L 17.015625 -7.917969 L 16.117188 -7.917969 C 16.117188 -7.917969 15.835938 -6.121094 15.050781 -4.550781 C 14.378906 -3.230469 12.691406 -0.898438 10.5 -0.898438 L 6.65625 -0.898438 L 16.511719 -19.039062 L 16.511719 -19.992188 L 2.808594 -19.992188 L 2.472656 -12.804688 L 3.371094 -12.804688 C 3.371094 -12.832031 3.539062 -14.011719 4.015625 -15.21875 C 4.941406 -17.492188 6.851562 -19.09375 8.253906 -19.09375 L 11.792969 -19.09375 L 1.910156 -0.898438 Z M 1.910156 0" transform="translate(112.853 183.159)"/></g></g></g><g fill="#FFF"><g><g><path d="M 6.878906 -6.347656 L 9.519531 -14.066406 L 12.074219 -6.347656 Z M 1.234375 0 L 8.394531 0 L 8.394531 -0.898438 L 7.074219 -0.898438 C 6.148438 -0.898438 5.617188 -1.542969 5.617188 -2.164062 C 5.617188 -2.527344 5.726562 -3.089844 5.925781 -3.59375 L 6.515625 -5.308594 L 12.410156 -5.308594 L 13.308594 -2.613281 C 13.394531 -2.359375 13.476562 -1.964844 13.476562 -1.796875 C 13.476562 -1.320312 13.167969 -0.898438 12.71875 -0.898438 L 10.699219 -0.898438 L 10.699219 0 L 20.554688 0 L 20.554688 -0.898438 L 19.429688 -0.898438 C 18.703125 -0.898438 18.113281 -1.347656 17.773438 -2.332031 L 11.765625 -20.5 L 10.585938 -20.5 L 4.660156 -3.171875 C 4.269531 -2.050781 3.398438 -0.898438 2.191406 -0.898438 L 1.234375 -0.898438 Z M 1.234375 0" transform="translate(131.44 183.159)"/></g></g></g><g fill="#FFF"><g><g><path d="M 1.964844 -9.996094 C 1.964844 -4.71875 4.660156 0.503906 10.109375 0.503906 C 12.917969 0.503906 14.910156 -0.871094 16.035156 -3.0625 C 16.707031 -4.378906 17.074219 -6.175781 17.183594 -7.722656 L 16.175781 -7.722656 C 16.035156 -6.402344 15.753906 -4.71875 15.078125 -3.453125 C 14.238281 -1.882812 12.75 -0.394531 10.109375 -0.394531 C 8.535156 -0.394531 6.738281 -1.742188 6.738281 -5.785156 L 6.738281 -14.207031 C 6.738281 -18.253906 8.253906 -19.601562 9.828125 -19.601562 C 12.636719 -19.601562 14.882812 -16.453125 15.726562 -11.652344 L 16.625 -11.652344 L 16.625 -20.273438 L 15.695312 -20.273438 L 15.191406 -19.234375 C 15.050781 -18.925781 14.910156 -18.703125 14.574219 -18.703125 C 14.347656 -18.703125 14.011719 -18.871094 13.617188 -19.121094 C 12.496094 -19.878906 11.34375 -20.5 9.828125 -20.5 C 4.886719 -20.5 1.964844 -15.613281 1.964844 -9.996094 Z M 1.964844 -9.996094" transform="translate(152.892 183.159)"/></g></g></g><g fill="#FFF"><g><g><path d="M 1.742188 0 L 11.175781 0 L 11.175781 -0.898438 L 9.210938 -0.898438 C 8.703125 -0.898438 8.535156 -1.066406 8.535156 -1.574219 L 8.535156 -9.996094 L 15.164062 -9.996094 L 15.164062 -1.574219 C 15.164062 -1.066406 14.996094 -0.898438 14.488281 -0.898438 L 12.523438 -0.898438 L 12.523438 0 L 21.957031 0 L 21.957031 -0.898438 L 19.992188 -0.898438 C 19.488281 -0.898438 19.320312 -1.066406 19.320312 -1.574219 L 19.320312 -18.421875 C 19.320312 -18.925781 19.488281 -19.09375 19.992188 -19.09375 L 21.957031 -19.09375 L 21.957031 -19.992188 L 12.46875 -19.992188 L 12.46875 -19.09375 L 14.488281 -19.09375 C 14.996094 -19.09375 15.164062 -18.925781 15.164062 -18.421875 L 15.164062 -11.007812 L 8.535156 -11.007812 L 8.535156 -18.421875 C 8.535156 -18.925781 8.703125 -19.09375 9.210938 -19.09375 L 11.175781 -19.09375 L 11.175781 -19.992188 L 1.742188 -19.992188 L 1.742188 -19.09375 L 3.707031 -19.09375 C 4.210938 -19.09375 4.378906 -18.925781 4.378906 -18.421875 L 4.378906 -1.574219 C 4.378906 -1.066406 4.210938 -0.898438 3.707031 -0.898438 L 1.742188 -0.898438 Z M 1.742188 0" transform="translate(171.705 183.159)"/></g></g></g><g fill="#FFF"><g><g><path d="M 1.964844 -9.996094 C 1.964844 -4.605469 5.839844 0.503906 10.277344 0.503906 C 14.714844 0.503906 18.589844 -4.605469 18.589844 -9.996094 C 18.589844 -15.386719 14.714844 -20.5 10.277344 -20.5 C 5.839844 -20.5 1.964844 -15.386719 1.964844 -9.996094 Z M 6.738281 -5.785156 L 6.738281 -14.207031 C 6.738281 -18.253906 8.144531 -19.601562 10.277344 -19.601562 C 12.410156 -19.601562 13.816406 -18.253906 13.816406 -14.207031 L 13.816406 -5.785156 C 13.816406 -1.742188 12.410156 -0.394531 10.277344 -0.394531 C 8.144531 -0.394531 6.738281 -1.742188 6.738281 -5.785156 Z M 6.738281 -5.785156" transform="translate(195.122 183.159)"/></g></g></g><g fill="#FFF"><g><g><path d="M 1.234375 -19.09375 L 1.769531 -19.09375 C 3.398438 -19.09375 4.042969 -18.449219 4.4375 -17.269531 L 10.277344 0.503906 L 11.457031 0.503906 L 15.613281 -13.703125 L 20.21875 0.503906 L 21.398438 0.503906 L 26.140625 -16.539062 C 26.589844 -17.941406 27.40625 -19.09375 28.839844 -19.09375 L 29.707031 -19.09375 L 29.707031 -19.992188 L 22.128906 -19.992188 L 22.128906 -19.09375 L 23.53125 -19.09375 C 24.683594 -19.09375 25.019531 -18.140625 25.019531 -17.464844 C 25.019531 -17.015625 24.90625 -16.203125 24.824219 -15.949219 L 22.265625 -6.710938 L 18.703125 -17.664062 C 18.644531 -17.886719 18.617188 -18.113281 18.617188 -18.28125 C 18.617188 -18.671875 18.980469 -19.09375 19.515625 -19.09375 L 20.890625 -19.09375 L 20.890625 -19.992188 L 11.679688 -19.992188 L 11.679688 -19.09375 L 12.160156 -19.09375 C 13.394531 -19.09375 13.957031 -18.703125 14.378906 -17.464844 L 14.996094 -15.585938 L 12.355469 -6.597656 L 8.816406 -17.410156 C 8.734375 -17.632812 8.675781 -17.941406 8.675781 -18.113281 C 8.675781 -18.644531 9.015625 -19.09375 9.546875 -19.09375 L 10.363281 -19.09375 L 10.363281 -19.992188 L 1.234375 -19.992188 Z M 1.234375 -19.09375" transform="translate(215.394 183.159)"/></g></g></g><g fill="#FFF"><g><g><path d="M 6.878906 -6.347656 L 9.519531 -14.066406 L 12.074219 -6.347656 Z M 1.234375 0 L 8.394531 0 L 8.394531 -0.898438 L 7.074219 -0.898438 C 6.148438 -0.898438 5.617188 -1.542969 5.617188 -2.164062 C 5.617188 -2.527344 5.726562 -3.089844 5.925781 -3.59375 L 6.515625 -5.308594 L 12.410156 -5.308594 L 13.308594 -2.613281 C 13.394531 -2.359375 13.476562 -1.964844 13.476562 -1.796875 C 13.476562 -1.320312 13.167969 -0.898438 12.71875 -0.898438 L 10.699219 -0.898438 L 10.699219 0 L 20.554688 0 L 20.554688 -0.898438 L 19.429688 -0.898438 C 18.703125 -0.898438 18.113281 -1.347656 17.773438 -2.332031 L 11.765625 -20.5 L 10.585938 -20.5 L 4.660156 -3.171875 C 4.269531 -2.050781 3.398438 -0.898438 2.191406 -0.898438 L 1.234375 -0.898438 Z M 1.234375 0" transform="translate(245.887 183.159)"/></g></g></g><g fill="#FFF"><g><g><path d="M 1.011719 -4.324219 C 1.011719 -1.152344 3.3125 0.503906 6.007812 0.503906 C 8.875 0.503906 11.960938 -1.628906 11.960938 -5.449219 L 11.960938 -18.421875 C 11.960938 -18.925781 12.128906 -19.09375 12.636719 -19.09375 L 14.378906 -19.09375 L 14.378906 -19.992188 L 4.886719 -19.992188 L 4.886719 -19.09375 L 7.132812 -19.09375 C 7.636719 -19.09375 7.804688 -18.925781 7.804688 -18.421875 L 7.804688 -3.652344 C 7.804688 -1.574219 7.160156 -0.394531 5.671875 -0.394531 C 4.015625 -0.394531 2.921875 -1.402344 2.921875 -2.132812 C 2.921875 -2.75 3.171875 -3.089844 3.820312 -3.3125 C 4.605469 -3.59375 5.53125 -4.269531 5.53125 -5.671875 C 5.53125 -6.683594 4.773438 -7.609375 3.539062 -7.609375 C 2.300781 -7.609375 1.011719 -6.347656 1.011719 -4.324219 Z M 1.011719 -4.324219" transform="translate(267.339 183.159)"/></g></g></g><g fill="#FFF"><g><g><path d="M 1.347656 0 L 8.3125 0 L 8.3125 -0.898438 C 6.851562 -0.898438 5.390625 -1.628906 5.390625 -3.425781 L 5.390625 -15.078125 L 5.589844 -15.078125 L 11.316406 0.335938 L 12.410156 0.335938 L 17.296875 -17.550781 L 17.296875 -1.574219 C 17.296875 -1.066406 17.128906 -0.898438 16.625 -0.898438 L 14.65625 -0.898438 L 14.65625 0 L 24.09375 0 L 24.09375 -0.898438 L 22.128906 -0.898438 C 21.621094 -0.898438 21.453125 -1.066406 21.453125 -1.574219 L 21.453125 -18.421875 C 21.453125 -18.925781 21.621094 -19.09375 22.128906 -19.09375 L 24.09375 -19.09375 L 24.09375 -19.992188 L 16.960938 -19.992188 L 13.199219 -6.175781 L 8.058594 -19.992188 L 1.347656 -19.992188 L 1.347656 -19.09375 L 3.59375 -19.09375 C 4.101562 -19.09375 4.269531 -18.925781 4.269531 -18.421875 L 4.269531 -3.425781 C 4.269531 -1.628906 2.808594 -0.898438 1.347656 -0.898438 Z M 1.347656 0" transform="translate(131.533 208.659)"/></g></g></g><g fill="#FFF"><g><g><path d="M 1.964844 -9.996094 C 1.964844 -4.605469 5.839844 0.503906 10.277344 0.503906 C 14.714844 0.503906 18.589844 -4.605469 18.589844 -9.996094 C 18.589844 -15.386719 14.714844 -20.5 10.277344 -20.5 C 5.839844 -20.5 1.964844 -15.386719 1.964844 -9.996094 Z M 6.738281 -5.785156 L 6.738281 -14.207031 C 6.738281 -18.253906 8.144531 -19.601562 10.277344 -19.601562 C 12.410156 -19.601562 13.816406 -18.253906 13.816406 -14.207031 L 13.816406 -5.785156 C 13.816406 -1.742188 12.410156 -0.394531 10.277344 -0.394531 C 8.144531 -0.394531 6.738281 -1.742188 6.738281 -5.785156 Z M 6.738281 -5.785156" transform="translate(156.803 208.659)"/></g></g></g><g fill="#FFF"><g><g><path d="M 1.347656 0 L 8.3125 0 L 8.3125 -0.898438 C 6.851562 -0.898438 5.390625 -1.628906 5.390625 -3.425781 L 5.390625 -15.078125 L 5.589844 -15.078125 L 11.316406 0.335938 L 12.410156 0.335938 L 17.296875 -17.550781 L 17.296875 -1.574219 C 17.296875 -1.066406 17.128906 -0.898438 16.625 -0.898438 L 14.65625 -0.898438 L 14.65625 0 L 24.09375 0 L 24.09375 -0.898438 L 22.128906 -0.898438 C 21.621094 -0.898438 21.453125 -1.066406 21.453125 -1.574219 L 21.453125 -18.421875 C 21.453125 -18.925781 21.621094 -19.09375 22.128906 -19.09375 L 24.09375 -19.09375 L 24.09375 -19.992188 L 16.960938 -19.992188 L 13.199219 -6.175781 L 8.058594 -19.992188 L 1.347656 -19.992188 L 1.347656 -19.09375 L 3.59375 -19.09375 C 4.101562 -19.09375 4.269531 -18.925781 4.269531 -18.421875 L 4.269531 -3.425781 C 4.269531 -1.628906 2.808594 -0.898438 1.347656 -0.898438 Z M 1.347656 0" transform="translate(177.075 208.659)"/></g></g></g><g fill="#FFF"><g><g><path d="M 1.742188 0 L 17.746094 0 L 17.914062 -7.75 L 17.015625 -7.75 C 17.015625 -7.75 16.792969 -5.925781 16.425781 -4.886719 C 15.894531 -3.371094 14.574219 -0.898438 12.269531 -0.898438 L 9.210938 -0.898438 C 8.703125 -0.898438 8.535156 -1.066406 8.535156 -1.574219 L 8.535156 -9.660156 L 9.96875 -9.660156 C 11.539062 -9.660156 12.777344 -7.414062 12.777344 -5.757812 L 13.675781 -5.757812 L 13.675781 -14.546875 L 12.777344 -14.546875 C 12.777344 -12.917969 11.539062 -10.671875 9.96875 -10.671875 L 8.535156 -10.671875 L 8.535156 -18.421875 C 8.535156 -18.925781 8.703125 -19.09375 9.210938 -19.09375 L 12.300781 -19.09375 C 13.757812 -19.09375 14.882812 -18.054688 15.667969 -16.679688 C 16.511719 -15.277344 16.792969 -13.476562 16.792969 -13.476562 L 17.691406 -13.476562 L 17.523438 -19.992188 L 1.742188 -19.992188 L 1.742188 -19.09375 L 3.707031 -19.09375 C 4.210938 -19.09375 4.378906 -18.925781 4.378906 -18.421875 L 4.378906 -1.574219 C 4.378906 -1.066406 4.210938 -0.898438 3.707031 -0.898438 L 1.742188 -0.898438 Z M 1.742188 0" transform="translate(202.346 208.659)"/></g></g></g><g fill="#FFF"><g><g><path d="M 1.347656 0 L 9.546875 0 L 9.546875 -0.898438 C 7.527344 -0.898438 6.007812 -2.078125 6.007812 -3.820312 L 6.007812 -14.515625 L 6.121094 -14.515625 L 16.625 0.503906 L 17.691406 0.503906 L 17.691406 -16.175781 C 17.691406 -17.914062 19.207031 -19.09375 21.226562 -19.09375 L 21.226562 -19.992188 L 13.027344 -19.992188 L 13.027344 -19.09375 C 15.050781 -19.09375 16.566406 -17.914062 16.566406 -16.175781 L 16.566406 -7.160156 L 7.582031 -19.992188 L 1.347656 -19.992188 L 1.347656 -19.09375 L 1.851562 -19.09375 C 2.75 -19.09375 3.089844 -18.898438 3.453125 -18.363281 L 4.578125 -16.679688 C 4.828125 -16.316406 4.886719 -16.230469 4.886719 -15.808594 L 4.886719 -3.820312 C 4.886719 -2.078125 3.371094 -0.898438 1.347656 -0.898438 Z M 1.347656 0" transform="translate(222 208.659)"/></g></g></g><g fill="#FFF"><g><g><path d="M 1.683594 -11.625 L 2.582031 -11.625 C 2.582031 -11.625 2.695312 -12.578125 3.171875 -14.265625 C 3.820312 -16.566406 5.308594 -19.09375 7.214844 -19.09375 C 7.835938 -19.09375 8.253906 -18.757812 8.253906 -18.140625 L 8.253906 -1.574219 C 8.253906 -1.066406 8.085938 -0.898438 7.582031 -0.898438 L 5.335938 -0.898438 L 5.335938 0 L 15.332031 0 L 15.332031 -0.898438 L 13.085938 -0.898438 C 12.578125 -0.898438 12.410156 -1.066406 12.410156 -1.574219 L 12.410156 -18.140625 C 12.410156 -18.757812 12.832031 -19.09375 13.449219 -19.09375 C 15.359375 -19.09375 16.847656 -16.566406 17.492188 -14.265625 C 17.972656 -12.578125 18.082031 -11.625 18.082031 -11.625 L 18.980469 -11.625 L 18.757812 -19.992188 L 1.910156 -19.992188 Z M 1.683594 -11.625" transform="translate(243.733 208.659)"/></g></g></g><path fill="#B2CFCB" d="M 115.023438 114.511719 C 119.75 118.855469 133.300781 115.675781 133.300781 115.675781 C 133.300781 115.675781 135.246094 101.902344 130.59375 97.5625 C 128.175781 95.339844 124.394531 95.496094 122.171875 97.914062 C 120.464844 99.773438 120.1875 102.46875 121.246094 104.601562 C 119.027344 103.726562 116.367188 104.234375 114.660156 106.09375 C 112.441406 108.507812 112.601562 112.289062 115.023438 114.511719"/></svg>